<svg xmlns="http://www.w3.org/2000/svg" xmlns:xlink="http://www.w3.org/1999/xlink" width="500" zoomAndPan="magnify" viewBox="0 0 375 374.999991" height="500" preserveAspectRatio="xMidYMid meet" version="1.0"><defs><clipPath id="5617709a10"><path d="M 120.109375 6.582031 L 255 6.582031 L 255 367 L 120.109375 367 Z M 120.109375 6.582031 " clip-rule="nonzero"/></clipPath></defs><rect x="-37.5" width="450" fill="#ffffff" y="-37.499999" height="449.999989" fill-opacity="1"/><rect x="-37.5" width="450" fill="#ffffff" y="-37.499999" height="449.999989" fill-opacity="1"/><g clip-path="url(#5617709a10)"><path fill="#020202" d="M 253.714844 192.265625 C 251.007812 186.054688 251.664062 183.640625 251.664062 183.640625 C 253.714844 177.652344 246.171875 170.417969 246.171875 170.417969 C 249.101562 168.957031 251.152344 166.398438 251.152344 166.398438 C 251.152344 158.214844 242.949219 151.785156 242.949219 151.785156 L 242.730469 148.425781 C 240.605469 145.941406 238.917969 143.75 238.917969 143.75 C 237.894531 141.046875 234.453125 138.195312 234.453125 138.195312 L 233.9375 137.175781 C 231.667969 131.621094 220.242188 129.285156 220.242188 129.285156 L 220.09375 128.40625 C 219.726562 126.652344 214.601562 124.753906 214.234375 124.753906 C 212.988281 124.753906 212.84375 123.804688 212.84375 123.804688 L 209.253906 123.730469 L 208.960938 123.074219 C 207.640625 120.734375 208.300781 116.496094 208.375 116.207031 C 208.886719 114.671875 211.085938 113.0625 211.085938 113.0625 C 211.742188 111.382812 212.109375 107.292969 212.109375 107.292969 C 212.109375 107.292969 212.109375 107.292969 212.402344 106.78125 C 212.695312 106.269531 216.871094 105.539062 216.871094 105.539062 C 218.261719 105.246094 218.628906 104.296875 218.628906 104.296875 C 218.261719 98.230469 214.527344 93.042969 214.527344 93.042969 C 213.941406 84.203125 209.179688 81.207031 209.179688 81.207031 C 197.605469 73.683594 186.03125 81.207031 186.03125 81.207031 C 179.660156 84.570312 180.394531 96.1875 180.394531 96.1875 C 175.996094 102.46875 178.34375 108.972656 178.34375 108.972656 L 183.101562 108.972656 C 184.640625 110.285156 185.226562 112.992188 185.226562 112.992188 C 185.886719 115.472656 187.71875 116.714844 187.71875 116.714844 L 187.863281 121.683594 C 184.128906 123.21875 181.492188 125.703125 181.199219 125.847656 C 178.855469 127.019531 177.976562 129.722656 177.976562 129.722656 L 177.316406 129.648438 C 172.335938 128.113281 168.820312 131.914062 168.820312 131.914062 C 165.449219 132.425781 162.152344 135.273438 162.152344 135.273438 C 161.789062 136.222656 158.710938 138.125 158.710938 138.125 C 156.367188 138.195312 152.632812 141.410156 152.632812 141.410156 C 150.582031 143.675781 149.261719 142.363281 149.261719 142.363281 C 148.308594 141.558594 148.308594 140.902344 150.214844 139.660156 C 152.117188 138.34375 156.585938 134.105469 156.585938 134.105469 L 156.585938 133.519531 C 156.511719 131.914062 156.21875 125.558594 156.21875 125.558594 C 148.164062 119.710938 145.453125 115.109375 145.453125 115.109375 L 146.992188 115.109375 L 147.0625 111.382812 L 148.382812 111.601562 L 148.457031 110.507812 L 149.699219 110.140625 L 149.699219 111.527344 L 153.875 111.527344 L 154.023438 110.871094 L 153.949219 107.144531 L 154.828125 107.21875 L 154.828125 104.808594 L 154.023438 104.660156 L 154.023438 102.980469 L 155.339844 102.6875 L 155.195312 100.789062 L 153.070312 100.714844 L 152.484375 89.097656 L 146.332031 88.222656 L 146.332031 84.640625 L 141.351562 84.640625 L 141.351562 79.894531 L 142.082031 79.820312 L 140.835938 56.367188 L 142.011719 56.367188 L 142.011719 53.226562 L 139.519531 51.542969 L 139.664062 48.183594 L 134.832031 46.355469 L 132.414062 26.265625 L 132.925781 25.898438 L 130.289062 6.976562 L 126.40625 7.195312 L 128.679688 26.117188 L 129.921875 26.558594 L 131.972656 44.675781 L 131.023438 44.824219 L 131.023438 47.378906 L 132.046875 47.308594 L 132.121094 48.839844 L 130.214844 50.8125 L 131.972656 52.421875 L 132.046875 54.027344 L 130.65625 55.488281 L 133.148438 80.402344 L 133.953125 80.988281 L 133.953125 84.933594 C 133.953125 84.933594 130.65625 85.519531 130.289062 85.519531 C 129.996094 85.519531 123.625 81.5 123.625 81.5 L 121.058594 82.011719 L 121.132812 91.21875 L 128.75 95.457031 C 131.242188 96.550781 131.753906 98.011719 131.753906 98.011719 L 131.972656 102.90625 L 131.460938 103.054688 C 130.144531 103.199219 128.605469 105.171875 128.605469 105.171875 C 128.238281 107.292969 124.429688 112.039062 124.429688 112.039062 C 124.210938 118.105469 127.066406 120.953125 127.066406 120.953125 C 125.015625 120.953125 125.234375 122.050781 125.308594 122.34375 C 125.382812 122.5625 126.042969 132.9375 126.042969 132.9375 C 122.964844 133.59375 120.402344 136.152344 120.402344 136.152344 C 120.402344 136.152344 120.109375 141.410156 120.179688 141.703125 C 121.207031 145.796875 125.234375 148.792969 125.234375 148.792969 C 125.234375 148.792969 125.457031 156.097656 125.457031 157.046875 C 125.457031 157.996094 124.722656 157.996094 124.722656 157.996094 C 123.109375 168.445312 131.535156 168.445312 131.535156 168.445312 C 131.535156 168.445312 136.441406 172.023438 136.734375 172.097656 C 136.957031 172.171875 139.007812 171.148438 139.007812 171.148438 L 142.960938 180.28125 L 137.761719 184.152344 L 140.03125 187.148438 C 144.71875 182.984375 148.96875 182.398438 148.96875 182.398438 L 149.042969 180.28125 L 151.386719 179.183594 L 151.53125 179.84375 C 150.875 181.742188 150.800781 184.738281 150.800781 184.738281 L 152.632812 184.8125 C 151.019531 188.171875 151.753906 195.84375 151.753906 195.84375 L 151.3125 211.480469 C 151.238281 218.054688 157.832031 218.492188 157.832031 218.492188 L 155.5625 223.972656 C 156.074219 225.871094 160.175781 228.136719 160.175781 228.136719 L 159.222656 236.613281 C 157.171875 239.828125 156.660156 245.746094 156.660156 245.746094 C 157.320312 247.425781 156.953125 249.617188 156.953125 249.617188 C 156.21875 251.226562 155.632812 256.414062 155.632812 256.414062 C 154.683594 260.578125 156.148438 267.007812 156.148438 267.007812 C 157.027344 271.609375 161.859375 270.878906 161.859375 270.878906 L 161.859375 274.386719 C 159.515625 277.164062 159.078125 286.441406 159.078125 286.441406 C 154.242188 289.582031 157.027344 297.914062 157.027344 297.914062 C 157.246094 299.738281 156.953125 304.78125 156.953125 304.78125 C 155.339844 307.046875 153.949219 316.03125 153.949219 316.03125 L 157.976562 316.835938 L 160.03125 336.78125 L 158.710938 340.945312 C 159.222656 342.992188 158.199219 344.308594 158.199219 344.671875 C 158.199219 346.71875 152.925781 354.609375 152.925781 354.609375 C 149.992188 356.65625 149.480469 361.257812 149.480469 361.257812 L 148.820312 365.203125 C 156.292969 367.6875 165.667969 365.863281 165.667969 365.863281 L 167.941406 363.742188 L 168.085938 359.722656 L 170.722656 359.433594 C 172.335938 359.066406 173.582031 357.53125 173.582031 357.53125 L 173.359375 351.832031 C 172.628906 351.320312 172.703125 351.320312 172.703125 351.320312 C 172.628906 348.984375 171.824219 345.476562 171.824219 345.476562 C 171.675781 344.601562 171.75 343.210938 171.75 343.210938 C 172.261719 341.75 171.96875 338.171875 171.96875 338.171875 C 171.96875 334.738281 172.335938 331.886719 172.335938 331.886719 L 174.238281 318.296875 L 174.824219 318.003906 C 176.65625 317.714844 178.269531 315.15625 178.269531 315.15625 C 180.539062 312.964844 179.367188 310.40625 179.367188 310.40625 C 179.585938 309.089844 177.976562 303.832031 177.976562 303.832031 C 179.367188 301.273438 179.292969 295.136719 179.292969 295.136719 C 180.539062 293.308594 179.734375 289.4375 179.734375 289.4375 L 184.421875 289.582031 L 185.960938 284.6875 L 182.371094 284.6875 L 182.957031 283.882812 C 183.6875 282.863281 185.300781 272.851562 185.300781 272.851562 C 185.300781 272.851562 185.300781 272.851562 187.132812 272.632812 C 188.964844 272.414062 188.523438 269.636719 188.449219 269.417969 C 188.378906 269.199219 188.671875 266.789062 188.671875 266.789062 C 192.84375 265.765625 193.285156 261.234375 193.285156 261.234375 L 193.945312 261.089844 L 193.945312 266.496094 C 192.1875 270.585938 193.945312 272.707031 193.945312 272.707031 C 196.800781 274.605469 198.777344 271.902344 198.777344 271.902344 C 199.585938 271.902344 201.121094 273.4375 201.121094 273.4375 C 201.488281 275.703125 203.320312 280.304688 203.320312 280.523438 C 203.320312 288.488281 207.863281 293.019531 207.863281 293.019531 C 207.933594 304.195312 209.621094 314.207031 209.621094 314.207031 L 214.015625 318.371094 C 214.894531 319.6875 216.945312 333.421875 216.945312 333.421875 C 217.605469 335.980469 217.089844 345.039062 217.089844 345.039062 C 215.773438 346.132812 216.066406 351.101562 216.066406 351.101562 L 215.699219 356.582031 C 216.210938 358.117188 219.582031 359.140625 219.582031 359.140625 C 221.265625 359.941406 223.832031 359.285156 223.832031 359.285156 C 225.222656 360.164062 225.003906 363.011719 225.003906 363.011719 C 227.125 365.496094 231.15625 365.789062 231.15625 365.789062 C 240.53125 365.714844 245.804688 363.667969 245.804688 363.667969 C 246.246094 360.964844 244.414062 360.527344 244.414062 360.527344 C 244.851562 357.96875 243.09375 355.414062 243.09375 355.414062 C 235.257812 350.152344 230.789062 340.875 230.789062 340.875 C 230.789062 338.828125 230.128906 335.394531 230.128906 335.394531 C 229.910156 334.296875 229.835938 331.742188 229.835938 331.742188 C 230.714844 329.039062 231.449219 315.519531 231.449219 315.519531 C 232.621094 314.425781 232.988281 312.597656 232.988281 312.597656 C 234.304688 309.164062 232.695312 307.339844 232.695312 307.339844 C 232.621094 306.828125 232.179688 303.683594 232.179688 303.683594 C 232.179688 303.683594 231.886719 295.5 230.863281 294.332031 C 229.910156 293.164062 229.542969 291.410156 229.542969 291.410156 L 231.226562 291.191406 L 229.105469 287.320312 C 227.273438 285.929688 227.347656 283.957031 227.347656 283.957031 L 229.105469 282.644531 L 227.566406 278.769531 L 226.175781 278.699219 C 225.882812 275.042969 224.34375 274.53125 224.34375 274.53125 L 224.417969 270.585938 L 228.664062 270.585938 L 228.664062 266.859375 L 231.375 264.011719 L 231.230469 261.164062 C 230.496094 258.824219 229.46875 252.6875 229.46875 252.6875 C 229.761719 250.347656 229.175781 248.449219 229.175781 248.449219 C 229.398438 245.308594 227.125 240.777344 227.125 240.777344 C 227.785156 238.292969 226.320312 234.347656 226.320312 234.347656 C 226.320312 232.230469 226.832031 226.164062 226.832031 226.164062 L 229.46875 225.140625 L 229.835938 221.414062 C 231.886719 222.21875 235.695312 220.757812 235.695312 220.757812 L 235.550781 221.925781 C 232.179688 224.191406 230.496094 232.230469 230.347656 232.8125 C 230.128906 234.203125 229.617188 235.226562 229.617188 235.226562 L 231.082031 235.589844 C 233.644531 235.296875 234.746094 230.914062 234.746094 230.914062 C 234.746094 229.816406 236.0625 228.574219 236.0625 228.574219 L 237.089844 230.109375 C 237.308594 236.175781 232.695312 239.390625 232.695312 239.390625 C 232.695312 240.851562 233.867188 241.800781 233.867188 241.800781 C 235.769531 241.289062 238.917969 240.703125 238.917969 240.703125 C 247.050781 239.390625 246.976562 233.398438 246.976562 233.398438 C 248.296875 231.351562 247.929688 224.484375 247.929688 224.484375 L 249.25 223.898438 L 251.152344 213.085938 C 251.957031 211.550781 252.179688 204.320312 252.179688 204.320312 C 253.128906 203.003906 252.765625 200.445312 252.765625 200.445312 C 255.109375 197.230469 253.714844 192.265625 253.714844 192.265625 Z M 153.949219 129.574219 L 153.949219 130.597656 C 153.949219 130.597656 149.1875 133.300781 146.84375 136.808594 L 144.71875 119.566406 C 144.71875 119.566406 150.726562 128.554688 153.949219 129.574219 Z M 152.996094 173.265625 C 152.996094 173.265625 148.015625 177.433594 147.796875 176.992188 C 147.578125 176.554688 146.84375 168.371094 146.84375 168.371094 L 153.875 167.421875 L 161.421875 163.695312 L 162.152344 167.640625 L 164.863281 171.367188 C 164.789062 171.441406 157.90625 171.003906 152.996094 173.265625 Z M 152.996094 173.265625 " fill-opacity="1" fill-rule="nonzero"/></g></svg>