<svg xmlns="http://www.w3.org/2000/svg" xmlns:xlink="http://www.w3.org/1999/xlink" width="500" zoomAndPan="magnify" viewBox="0 0 375 374.999991" height="500" preserveAspectRatio="xMidYMid meet" version="1.0"><defs><clipPath id="bd5602a2b1"><path d="M 24.742188 229 L 66 229 L 66 269 L 24.742188 269 Z M 24.742188 229 " clip-rule="nonzero"/></clipPath><clipPath id="e7a20ddd22"><path d="M 113.136719 13.246094 L 263.757812 13.246094 L 263.757812 361.390625 L 113.136719 361.390625 Z M 113.136719 13.246094 " clip-rule="nonzero"/></clipPath><clipPath id="d66a5235ef"><path d="M 26.15625 56.34375 L 350.222656 56.34375 L 350.222656 317.761719 L 26.15625 317.761719 Z M 26.15625 56.34375 " clip-rule="nonzero"/></clipPath></defs><rect x="-37.5" width="450" fill="#ffffff" y="-37.499999" height="449.999989" fill-opacity="1"/><rect x="-37.5" width="450" fill="#ffffff" y="-37.499999" height="449.999989" fill-opacity="1"/><path fill="#000000" d="M 188.277344 164.410156 C 174.722656 164.410156 163.699219 174.6875 163.699219 187.320312 C 163.699219 199.949219 174.722656 210.226562 188.277344 210.226562 C 201.828125 210.226562 212.851562 199.949219 212.851562 187.320312 C 212.851562 174.6875 201.828125 164.410156 188.277344 164.410156 Z M 188.277344 219.101562 C 179.386719 219.101562 171.019531 215.828125 164.710938 209.882812 C 158.332031 203.871094 154.820312 195.859375 154.820312 187.320312 C 154.820312 178.777344 158.332031 170.765625 164.710938 164.753906 C 171.019531 158.808594 179.386719 155.535156 188.277344 155.535156 C 197.164062 155.535156 205.53125 158.808594 211.839844 164.753906 C 218.21875 170.765625 221.734375 178.777344 221.734375 187.320312 C 221.734375 195.859375 218.21875 203.871094 211.839844 209.882812 C 205.53125 215.828125 197.164062 219.101562 188.277344 219.101562 " fill-opacity="1" fill-rule="nonzero"/><path fill="#000000" d="M 296.136719 300.90625 C 289.796875 300.90625 284.632812 305.65625 284.632812 311.496094 C 284.632812 317.335938 289.796875 322.089844 296.136719 322.089844 C 302.484375 322.089844 307.644531 317.335938 307.644531 311.496094 C 307.644531 305.65625 302.484375 300.90625 296.136719 300.90625 Z M 296.136719 330.960938 C 284.898438 330.960938 275.753906 322.230469 275.753906 311.496094 C 275.753906 300.765625 284.898438 292.035156 296.136719 292.035156 C 307.378906 292.035156 316.527344 300.765625 316.527344 311.496094 C 316.527344 322.230469 307.378906 330.960938 296.136719 330.960938 " fill-opacity="1" fill-rule="nonzero"/><g clip-path="url(#bd5602a2b1)"><path fill="#000000" d="M 45.128906 238.800781 C 38.785156 238.800781 33.625 243.554688 33.625 249.394531 C 33.625 255.234375 38.785156 259.984375 45.128906 259.984375 C 51.472656 259.984375 56.632812 255.234375 56.632812 249.394531 C 56.632812 243.554688 51.472656 238.800781 45.128906 238.800781 Z M 45.128906 268.859375 C 33.886719 268.859375 24.742188 260.128906 24.742188 249.394531 C 24.742188 238.660156 33.886719 229.929688 45.128906 229.929688 C 56.371094 229.929688 65.515625 238.660156 65.515625 249.394531 C 65.515625 260.128906 56.371094 268.859375 45.128906 268.859375 " fill-opacity="1" fill-rule="nonzero"/></g><path fill="#000000" d="M 154.800781 27.492188 C 148.460938 27.492188 143.296875 32.242188 143.296875 38.082031 C 143.296875 43.921875 148.460938 48.675781 154.800781 48.675781 C 161.148438 48.675781 166.308594 43.921875 166.308594 38.082031 C 166.308594 32.242188 161.148438 27.492188 154.800781 27.492188 Z M 154.800781 57.546875 C 143.5625 57.546875 134.417969 48.816406 134.417969 38.082031 C 134.417969 27.351562 143.5625 18.617188 154.800781 18.617188 C 166.042969 18.617188 175.191406 27.351562 175.191406 38.082031 C 175.191406 48.816406 166.042969 57.546875 154.800781 57.546875 " fill-opacity="1" fill-rule="nonzero"/><g clip-path="url(#e7a20ddd22)"><path fill="#000000" d="M 188.277344 361.390625 C 167.5625 361.390625 148.433594 342.773438 134.410156 308.964844 C 127.824219 293.089844 122.65625 274.632812 119.054688 254.113281 C 115.339844 232.949219 113.457031 210.472656 113.457031 187.320312 C 113.457031 159.996094 116.046875 133.863281 121.152344 109.648438 C 126.050781 86.417969 133.234375 65.757812 141.925781 49.886719 L 149.714844 54.144531 C 132.570312 85.445312 122.339844 135.230469 122.339844 187.320312 C 122.339844 232.058594 129.539062 274.054688 142.613281 305.570312 C 148.859375 320.621094 156.074219 332.382812 164.054688 340.515625 C 171.863281 348.480469 180.015625 352.515625 188.277344 352.515625 C 196.539062 352.515625 204.6875 348.480469 212.5 340.515625 C 220.480469 332.382812 227.695312 320.621094 233.9375 305.570312 C 247.011719 274.054688 254.210938 232.058594 254.210938 187.320312 C 254.210938 142.578125 247.011719 100.582031 233.9375 69.066406 C 227.695312 54.011719 220.480469 42.253906 212.5 34.121094 C 204.6875 26.15625 196.539062 22.121094 188.277344 22.121094 C 181.296875 22.121094 174.359375 25.023438 167.65625 30.75 L 161.886719 24.003906 C 170.242188 16.863281 179.121094 13.246094 188.277344 13.246094 C 208.988281 13.246094 228.117188 31.863281 242.144531 65.667969 C 248.730469 81.546875 253.898438 100.003906 257.496094 120.523438 C 261.210938 141.6875 263.09375 164.164062 263.09375 187.320312 C 263.09375 210.472656 261.210938 232.949219 257.496094 254.113281 C 253.898438 274.632812 248.730469 293.089844 242.144531 308.964844 C 228.117188 342.773438 208.988281 361.390625 188.277344 361.390625 " fill-opacity="1" fill-rule="nonzero"/></g><path fill="#000000" d="M 61.761719 316.597656 C 51.355469 316.597656 43.085938 314.371094 37.09375 309.945312 C 33.777344 307.496094 31.21875 304.402344 29.496094 300.75 C 27.855469 297.269531 26.96875 293.269531 26.859375 288.859375 C 26.664062 280.730469 29.101562 271.089844 34.09375 260.191406 L 42.167969 263.886719 C 37.742188 273.546875 35.578125 281.878906 35.738281 288.644531 C 35.894531 294.992188 38.066406 299.625 42.375 302.8125 C 48.199219 307.117188 57.96875 308.628906 70.628906 307.1875 C 83.738281 305.691406 99.46875 301.214844 117.382812 293.871094 C 154.625 278.613281 196.808594 252.835938 236.164062 221.292969 C 267.742188 195.980469 294.460938 169.402344 313.433594 144.429688 C 331.367188 120.820312 341.089844 100.113281 340.816406 86.117188 C 340.6875 79.707031 338.515625 75.03125 334.175781 71.824219 C 328.351562 67.519531 318.582031 66.007812 305.925781 67.449219 C 292.816406 68.941406 277.082031 73.421875 259.167969 80.765625 C 221.925781 96.023438 179.742188 121.800781 140.386719 153.34375 C 105.875 181.007812 76.507812 210.933594 57.703125 237.59375 L 50.445312 232.488281 C 59.925781 219.039062 71.878906 204.90625 85.964844 190.476562 C 100.5 175.585938 116.941406 160.761719 134.832031 146.421875 C 155.035156 130.230469 175.984375 115.515625 197.105469 102.6875 C 217.542969 90.277344 237.289062 80.136719 255.796875 72.554688 C 274.46875 64.902344 290.996094 60.21875 304.917969 58.632812 C 320.0625 56.90625 331.683594 58.949219 339.457031 64.6875 C 342.796875 67.160156 345.363281 70.273438 347.085938 73.957031 C 348.730469 77.460938 349.605469 81.492188 349.691406 85.941406 C 350.011719 102.160156 339.921875 124.238281 320.507812 149.792969 C 301.101562 175.335938 273.855469 202.453125 241.71875 228.214844 C 221.515625 244.40625 200.566406 259.121094 179.449219 271.949219 C 159.007812 284.359375 139.261719 294.5 120.753906 302.082031 C 102.082031 309.734375 85.554688 314.417969 71.632812 316.003906 C 68.15625 316.398438 64.863281 316.597656 61.761719 316.597656 " fill-opacity="1" fill-rule="nonzero"/><g clip-path="url(#d66a5235ef)"><path fill="#000000" d="M 315.226562 317.664062 L 314.835938 308.800781 C 323.027344 308.441406 329.449219 306.527344 333.917969 303.121094 C 338.816406 299.386719 341.242188 294.011719 341.335938 286.683594 C 341.523438 271.972656 331.933594 250.808594 314.320312 227.082031 C 295.703125 202 269.414062 175.511719 238.308594 150.488281 C 199.027344 118.886719 156.695312 93.351562 119.109375 78.582031 C 83.144531 64.449219 55.269531 61.875 42.632812 71.515625 C 37.738281 75.25 35.3125 80.625 35.21875 87.953125 C 35.027344 102.664062 44.621094 123.828125 62.230469 147.554688 C 80.851562 172.636719 107.136719 199.125 138.242188 224.148438 C 186.421875 262.90625 239.925781 292.792969 281.363281 304.09375 L 279.023438 312.65625 C 258.421875 307.035156 234.355469 296.773438 209.433594 282.972656 C 183.789062 268.78125 157.25 250.828125 132.671875 231.058594 C 100.988281 205.570312 74.164062 178.523438 55.097656 152.839844 C 36.066406 127.195312 26.117188 104.71875 26.335938 87.839844 C 26.398438 82.96875 27.320312 78.539062 29.066406 74.6875 C 30.902344 70.640625 33.652344 67.203125 37.246094 64.460938 C 45.28125 58.328125 57.160156 55.910156 72.542969 57.265625 C 86.726562 58.515625 103.488281 62.90625 122.359375 70.324219 C 141.058594 77.671875 160.953125 87.640625 181.484375 99.945312 C 202.703125 112.660156 223.695312 127.339844 243.878906 143.578125 C 275.5625 169.066406 302.390625 196.113281 321.453125 221.796875 C 340.488281 247.441406 350.433594 269.917969 350.214844 286.796875 C 350.152344 291.667969 349.230469 296.09375 347.484375 299.949219 C 345.648438 303.996094 342.898438 307.433594 339.308594 310.175781 C 333.367188 314.703125 325.265625 317.222656 315.226562 317.664062 " fill-opacity="1" fill-rule="nonzero"/></g></svg>