<svg xmlns="http://www.w3.org/2000/svg" xmlns:xlink="http://www.w3.org/1999/xlink" width="500" zoomAndPan="magnify" viewBox="0 0 375 374.999991" height="500" preserveAspectRatio="xMidYMid meet" version="1.0"><defs><clipPath id="bc8f77e650"><path d="M 62 9.511719 L 312 9.511719 L 312 365.761719 L 62 365.761719 Z M 62 9.511719 " clip-rule="nonzero"/></clipPath></defs><rect x="-37.5" width="450" fill="#ffffff" y="-37.499999" height="449.999989" fill-opacity="1"/><rect x="-37.5" width="450" fill="#ffffff" y="-37.499999" height="449.999989" fill-opacity="1"/><g clip-path="url(#bc8f77e650)"><path fill="#000000" d="M 162.222656 23.3125 C 163.3125 16.542969 169.054688 10.773438 175.9375 10.117188 C 182.625 9.75 189.324219 9.972656 196.011719 9.972656 C 203.609375 9.515625 210.546875 15.632812 211.898438 22.964844 C 232.535156 111.246094 253.101562 199.542969 273.664062 287.824219 C 277.453125 303.15625 280.480469 318.671875 284.683594 333.910156 C 291.644531 334.109375 298.855469 332.851562 305.667969 334.65625 C 313.738281 338.214844 311.0625 348.511719 311.226562 355.519531 C 311.515625 361.5625 305.449219 365.742188 299.804688 364.9375 C 223.957031 364.972656 148.085938 365.03125 72.238281 364.902344 C 66.136719 365.28125 61.964844 359.152344 62.675781 353.511719 C 62.835938 347.160156 60.980469 338.183594 67.976562 334.808594 C 75.042969 332.726562 82.601562 334.242188 89.851562 333.765625 C 113.933594 230.28125 138.089844 126.796875 162.222656 23.3125 Z M 170.96875 26.746094 C 166.285156 47.625 161.207031 68.394531 156.433594 89.257812 C 176.886719 89.292969 197.34375 89.273438 217.800781 89.273438 C 212.789062 67.867188 207.820312 46.476562 202.824219 25.085938 C 202.367188 22.492188 200.75 19.847656 197.90625 19.5 C 190.621094 19.171875 183.296875 19.117188 176.03125 19.519531 C 172.605469 20.195312 171.546875 23.808594 170.96875 26.746094 Z M 125.191406 223.234375 C 166.449219 223.160156 207.6875 223.308594 248.929688 223.183594 C 243.300781 198.234375 237.324219 173.375 231.570312 148.445312 C 201.933594 148.496094 172.296875 148.445312 142.660156 148.460938 C 136.796875 173.375 131.035156 198.324219 125.191406 223.234375 Z M 123.0625 232.617188 C 119.910156 246.105469 116.667969 259.574219 113.589844 273.082031 C 162.609375 273.007812 211.625 273.046875 260.644531 273.0625 C 257.492188 259.558594 254.304688 246.070312 251.191406 232.566406 C 208.472656 232.617188 165.777344 232.507812 123.0625 232.617188 Z M 72.039062 343.144531 C 72.003906 347.289062 72.003906 351.433594 72.023438 355.574219 C 148.671875 355.628906 225.339844 355.59375 302.007812 355.59375 C 302.007812 351.433594 302.007812 347.289062 302.007812 343.144531 C 225.359375 343.292969 148.691406 343.308594 72.039062 343.144531 Z M 72.039062 343.144531 " fill-opacity="1" fill-rule="nonzero"/></g></svg>