<?xml version="1.0" encoding="iso-8859-1"?>
<!-- Uploaded to: SVG Repo, www.svgrepo.com, Generator: SVG Repo Mixer Tools -->
<svg fill="#000000" height="800px" width="800px" version="1.1" id="Layer_1" xmlns="http://www.w3.org/2000/svg" xmlns:xlink="http://www.w3.org/1999/xlink" 
	 viewBox="0 0 512 512" xml:space="preserve">
<g>
	<g>
		<path d="M489.599,269.532h-93.129c-1.368-29.853-6.318-58.571-14.498-84.769l75.741-75.741c6.665-6.665,6.665-17.471,0-24.136
			c-6.664-6.665-17.471-6.665-24.136,0l-65.087,65.087c-15.964-33.823-40.913-66.587-75.489-81.175l40.028-34.665h72.699
			c9.425,0,17.067-7.641,17.067-17.067S415.154,0,405.729,0h-79.063c-4.104,0-8.07,1.479-11.173,4.165l-59.491,51.521L196.511,4.165
			C193.409,1.479,189.442,0,185.339,0h-79.063C96.85,0,89.209,7.641,89.209,17.067s7.641,17.067,17.067,17.067h72.699l40.027,34.665
			c-34.59,14.592-59.531,47.362-75.49,81.176L78.424,84.886c-6.664-6.665-17.471-6.665-24.136,0c-6.665,6.665-6.665,17.471,0,24.136
			l75.741,75.741c-8.18,26.198-13.13,54.916-14.498,84.769H22.402c-9.425,0-17.067,7.641-17.067,17.067s7.641,17.067,17.067,17.067
			h93.129c1.368,29.853,6.318,58.571,14.498,84.769l-75.741,75.741c-6.665,6.665-6.665,17.471,0,24.136
			c6.664,6.665,17.471,6.666,24.136,0l65.087-65.087c3.18,6.738,6.606,13.223,10.281,19.408
			C180.372,487.365,216.671,512,256.001,512c51.673,0,90.106-41.354,112.489-88.777l65.087,65.087
			c6.664,6.665,17.471,6.666,24.136,0c6.665-6.665,6.665-17.471,0-24.136l-75.741-75.741c8.179-26.198,13.13-54.916,14.498-84.769
			h93.129c9.425,0,17.067-7.641,17.067-17.067S499.024,269.532,489.599,269.532z M238.934,475.315
			c-65.819-19.763-109.72-148.025-80.654-265.018h80.654V475.315z M169.281,176.163c15.593-38.544,45.581-80.833,86.719-80.833
			c41.24,0,71.174,42.406,86.719,80.833H169.281z M273.067,475.315V210.297h80.654C382.772,327.226,338.908,455.545,273.067,475.315
			z"/>
	</g>
</g>
</svg>